<svg width="78" height="78" viewBox="0 0 78 78" fill="none" xmlns="http://www.w3.org/2000/svg">
<path d="M39 4.875C32.2507 4.875 25.653 6.8764 20.0412 10.6261C14.4294 14.3758 10.0555 19.7054 7.47263 25.9409C4.88979 32.1765 4.214 39.0379 5.53072 45.6575C6.84744 52.2771 10.0975 58.3576 14.87 63.13C19.6425 67.9025 25.723 71.1526 32.3426 72.4693C38.9622 73.786 45.8236 73.1102 52.0591 70.5274C58.2946 67.9445 63.6242 63.5707 67.3739 57.9588C71.1236 52.347 73.125 45.7493 73.125 39C73.125 29.9495 69.5297 21.2697 63.13 14.87C56.7304 8.4703 48.0505 4.875 39 4.875ZM57.1521 41.1816L27.9021 55.8066C27.5304 55.9923 27.1173 56.0799 26.7022 56.0611C26.2871 56.0423 25.8837 55.9177 25.5303 55.6991C25.1769 55.4806 24.8853 55.1753 24.6831 54.8122C24.4809 54.4492 24.3748 54.0405 24.375 53.625V24.375C24.3752 23.9597 24.4816 23.5513 24.684 23.1886C24.8863 22.8259 25.178 22.5209 25.5314 22.3027C25.8847 22.0844 26.2879 21.96 26.7028 21.9413C27.1178 21.9226 27.5306 22.0102 27.9021 22.1959L57.1521 36.8209C57.5564 37.0235 57.8964 37.3347 58.134 37.7195C58.3716 38.1044 58.4974 38.5477 58.4974 39C58.4974 39.4523 58.3716 39.8956 58.134 40.2805C57.8964 40.6653 57.5564 40.9765 57.1521 41.1791" fill="white"/>
</svg>
